<svg xmlns="http://www.w3.org/2000/svg" viewBox="0 0 25.6 25.6"><style>.prefix__B{stroke-linecap:round}.prefix__C{stroke-linejoin:round}.prefix__D{stroke-linejoin:miter}.prefix__E{stroke-width:.716}</style><g fill="none" stroke="#fff"><path d="M19 18.6c.1-1.3.1-1.5 1.1-1.3h.3a6 6 0 0 0 2.4-.4c1.2-.6 2-1.6.7-1.3-2.8.6-3-.4-3-.4 3-4.5 4.3-10.3 3.2-11.7-3-3.8-8.2-2-8.3-2a10 10 0 0 0-2-.2c-1.3 0-2.3.4-3 1 0 0-9.3-3.9-8.9 4.8.1 1.8 2.7 13.9 5.7 10.2C8.2 16 9.4 15 9.4 15c.5.3 1.1.5 1.8.4a2 2 0 0 0 0 .5c-.7.9-.5 1-2 1.3-1.6.4-.7 1 0 1.1.6.2 2.3.4 3.5-1.2v.2c.3.3.2 1.8.3 2.9s0 2 .3 2.7.5 2 2.5 1.7c1.8-.4 3-1 3.2-5.9" fill="#000" stroke="#000" stroke-width="2.1" class="prefix__D"/><path d="M23.5 15.6c-2.9.6-3-.4-3-.4 3-4.5 4.3-10.3 3.2-11.7-3-3.8-8.2-2-8.3-2a10.3 10.3 0 0 0-2-.1c-1.3 0-2.3.3-3 .9 0 0-9.3-3.9-8.9 4.8.1 1.8 2.6 13.9 5.7 10.2C8.2 16 9.4 15 9.4 15c.5.3 1.1.5 1.8.4a2 2 0 0 0 0 .5c-.7.9-.5 1-2 1.3-1.6.4-.7 1 0 1.1.6.2 2.3.4 3.5-1.2v.2c.3.3.5 1.6.4 2.8s0 2.1.2 2.8.5 2 2.5 1.7c1.8-.4 2.6-1.4 2.8-3 0-1 .2-1 .3-2l.1-.4c.2-1.5 0-2 1.1-1.8h.3c.7 0 1.8 0 2.4-.4 1.2-.6 2-1.6.7-1.3z" fill="#336791" stroke="none"/><g class="prefix__E"><g class="prefix__B"><path d="M12.8 16.5c0 2.8 0 5.7.3 6.4s.9 2 3 1.6c1.7-.4 2.3-1.1 2.5-2.7l.7-5m-9-14.6S1.2-1.6 1.6 7C1.6 9 4.1 21 7.2 17.3c1-1.4 2-2.4 2-2.4m6.2-13.4c-.4.1 5.1-2 8.3 2 1 1.4-.2 7.1-3.3 11.7" class="prefix__C"/><path d="M20.4 15.2s.2 1 3.1.4c1.3-.3.5.7-.8 1.3-1 .5-3.4.6-3.4 0-.1-1.8 1.2-1.3 1.1-1.7 0-.4-.7-.8-1-1.8-.4-.8-4.8-7.3 1.2-6.3.2 0-1.6-5.7-7.2-5.8S8 8.2 8 8.2" stroke-linejoin="bevel"/></g><g class="prefix__C"><path d="M11.2 15.8c-.7.8-.5 1-2 1.3-1.6.3-.7 1-.1 1 .7.3 2.4.5 3.6-1 .3-.6 0-1.4-.5-1.6-.2 0-.6-.2-1 .3z"/><path d="M11.2 15.8c0-.6.2-1.2.4-1.9.4-1 1.3-2.1.6-5.5-.5-2.6-4.2-.5-4.2-.2s.2 1.7 0 3.4c-.4 2 1.3 3.9 3.2 3.7" class="prefix__B"/></g></g><g fill="#fff" class="prefix__D"><path d="M10.3 8.1c0 .2.2.5.5.5s.6-.2.6-.3-.2-.2-.5-.3-.6 0-.6.1z" stroke-width=".2"/><path d="M19.5 8s-.2.3-.5.4-.6-.2-.6-.3.2-.3.5-.3.6 0 .6.1z" stroke-width=".1"/></g><path d="M20.6 7c0 1-.2 1.6-.3 2.6 0 1.4.7 3-.4 4.7" class="prefix__B prefix__C prefix__E"/></g></svg>